<?xml version="1.0" standalone="no"?>
<!DOCTYPE svg PUBLIC "-//W3C//DTD SVG 20010904//EN"
 "http://www.w3.org/TR/2001/REC-SVG-20010904/DTD/svg10.dtd">
<svg version="1.0" xmlns="http://www.w3.org/2000/svg"
 width="799.000000pt" height="207.000000pt" viewBox="0 0 799.000000 207.000000"
 preserveAspectRatio="xMidYMid meet">

<g transform="translate(0.000000,207.000000) scale(0.100000,-0.100000)"
fill="#000000" stroke="none">
<path d="M0 1035 l0 -1035 3995 0 3995 0 0 1035 0 1035 -3995 0 -3995 0 0
-1035z m1112 654 c161 -33 323 -160 398 -311 91 -185 91 -351 0 -536 -75 -151
-237 -278 -398 -311 -202 -41 -403 19 -547 163 -150 152 -207 357 -155 560 28
109 74 190 155 271 76 77 161 128 260 156 69 20 209 24 287 8z m728 -365 c0
-8 -14 -20 -30 -26 -33 -11 -52 -39 -69 -105 -7 -26 -18 -43 -26 -43 -12 0
-15 19 -15 98 l0 97 70 -3 c53 -3 70 -7 70 -18z m310 -75 c0 -115 -12 -126
-42 -39 -21 62 -40 86 -74 94 -13 4 -24 13 -24 21 0 10 17 15 63 18 34 2 65 4
70 5 4 1 7 -43 7 -99z m-168 -171 l3 -263 28 -13 c15 -7 27 -20 27 -28 0 -12
-19 -14 -112 -12 -91 2 -113 6 -113 18 0 8 11 17 25 20 l25 6 3 267 2 267 55
0 55 0 2 -262z m318 3 l0 -260 30 -21 c17 -12 28 -26 25 -31 -8 -12 -182 -12
-190 1 -3 5 6 17 20 26 l25 16 0 244 0 244 -25 10 c-46 17 -27 30 45 30 l70 0
0 -259z m1050 -31 l0 -291 -77 3 c-42 2 -78 8 -80 13 -1 6 11 18 27 27 l30 17
-2 238 -3 238 -27 13 c-47 22 -31 32 52 32 l80 0 0 -290z m214 265 c53 -25 78
-68 73 -123 -5 -48 -44 -98 -84 -108 -32 -8 -29 -21 7 -29 61 -13 110 -74 110
-137 0 -88 -72 -143 -202 -154 -74 -6 -78 -6 -78 13 0 18 8 21 55 25 91 8 133
70 106 158 -15 50 -51 78 -113 86 -38 5 -48 10 -46 23 2 10 18 18 45 22 51 6
69 20 83 65 25 75 -11 138 -88 150 -27 4 -42 12 -42 21 0 22 123 13 174 -12z
m2306 -265 l0 -291 -77 3 c-42 2 -78 8 -80 13 -1 6 11 18 27 27 l30 17 -2 238
-3 238 -27 13 c-47 22 -31 32 52 32 l80 0 0 -290z m215 264 c78 -40 96 -135
39 -195 -16 -17 -39 -32 -51 -35 -34 -9 -28 -19 16 -33 42 -12 87 -57 97 -97
16 -62 -28 -143 -91 -170 -18 -7 -66 -16 -108 -20 -73 -6 -77 -6 -77 13 0 18
8 21 55 25 91 8 133 70 106 158 -15 50 -51 78 -113 86 -38 5 -48 10 -46 23 2
10 16 17 37 19 47 5 78 28 91 68 25 75 -11 138 -88 150 -27 4 -42 12 -42 21 0
23 123 14 175 -13z m275 -238 l0 -264 25 -16 c14 -9 23 -21 20 -26 -8 -13
-182 -13 -190 -1 -3 5 8 19 25 31 l30 21 0 224 c0 123 -3 231 -6 240 -4 9 -17
21 -30 26 -46 17 -25 29 51 29 l75 0 0 -264z m950 -1 l0 -265 25 -12 c46 -21
21 -33 -73 -36 -80 -2 -92 -1 -92 14 0 9 9 18 20 21 11 3 23 15 25 27 3 11 4
122 3 246 -3 222 -3 225 -25 235 -46 20 -26 35 47 35 l70 0 0 -265z m-2750
-51 l0 -275 -22 6 c-13 4 -32 16 -43 26 -18 18 -20 35 -23 179 l-3 160 -25 0
c-32 0 -30 21 4 47 19 14 33 38 42 70 17 63 17 63 46 63 l24 0 0 -276z m-2069
130 c48 -24 59 -65 59 -214 0 -130 0 -130 25 -142 44 -20 22 -33 -58 -36 -76
-3 -77 -3 -77 22 0 14 5 28 10 31 6 4 10 62 10 141 0 121 -2 136 -20 154 -22
22 -51 26 -81 10 -16 -9 -19 -7 -19 14 0 15 7 26 18 29 39 10 105 6 133 -9z
m299 2 c0 -8 -9 -18 -20 -21 -35 -11 -54 -63 -55 -145 0 -103 10 -144 45 -177
17 -15 30 -34 30 -40 0 -17 -35 -16 -69 1 -115 60 -143 238 -53 338 20 22 46
44 57 48 32 14 65 11 65 -4z m89 -1 c42 -21 79 -70 86 -113 4 -20 9 -45 12
-54 4 -16 -6 -18 -117 -18 -110 0 -121 2 -118 18 3 14 16 18 72 20 65 3 68 4
62 25 -3 12 -6 30 -6 39 0 9 -11 30 -25 46 -42 50 -25 68 34 37z m991 5 c0 -6
-11 -21 -26 -33 -29 -26 -44 -78 -44 -162 0 -84 15 -136 44 -162 37 -32 35
-54 -4 -43 -83 24 -132 100 -132 203 1 70 13 111 45 146 43 47 117 79 117 51z
m100 -5 c104 -54 134 -239 53 -335 -29 -35 -72 -60 -103 -60 -25 0 -27 26 -2
34 33 11 46 48 50 149 5 109 -13 181 -49 192 -25 8 -24 35 1 35 12 0 34 -7 50
-15z m260 4 c0 -6 -11 -20 -25 -31 -29 -22 -33 -59 -9 -79 10 -8 51 -27 93
-44 112 -44 147 -107 101 -182 -21 -35 -48 -52 -97 -64 -28 -6 -33 -4 -33 11
0 10 9 20 19 23 10 2 27 16 36 30 28 43 4 75 -83 113 -96 41 -122 66 -122 116
0 22 5 48 11 59 20 39 109 78 109 48z m132 -25 c34 -34 36 -68 4 -89 -18 -12
-29 -13 -51 -5 -25 10 -27 14 -22 50 4 33 2 42 -14 50 -10 6 -19 16 -19 22 0
20 72 0 102 -28z m488 25 c0 -6 -11 -20 -24 -30 -61 -48 -62 -274 -2 -326 15
-12 26 -29 26 -37 0 -23 -57 -1 -99 38 -45 42 -61 83 -61 161 0 91 35 154 105
193 26 15 55 15 55 1z m100 -4 c132 -68 132 -312 -1 -380 -53 -28 -93 -13 -49
18 38 27 50 67 50 170 0 107 -16 161 -51 172 -25 8 -24 35 1 35 12 0 34 -7 50
-15z m268 -168 l2 -178 25 -11 c46 -21 21 -33 -73 -36 -78 -2 -92 0 -92 13 0
9 8 19 18 22 9 4 20 11 24 17 4 6 8 75 8 153 0 141 0 143 -25 159 -47 31 -32
45 43 42 l67 -3 3 -178z m208 149 l34 -34 0 -146 0 -146 25 -10 c14 -5 25 -16
25 -25 0 -22 -148 -22 -157 1 -3 8 -1 20 6 27 7 7 11 61 11 153 0 120 -3 145
-17 159 -16 17 -48 17 -85 0 -14 -5 -18 -2 -18 13 0 29 26 41 89 42 47 0 57
-4 87 -34z m1164 25 c0 -5 -13 -23 -29 -39 -35 -34 -46 -90 -39 -195 6 -81 22
-124 50 -132 26 -9 23 -35 -6 -35 -36 0 -88 41 -116 90 -20 36 -24 59 -24 115
1 43 7 81 17 100 17 33 73 89 97 98 24 9 50 8 50 -2z m121 -22 c110 -78 97
-303 -21 -364 -60 -31 -93 -11 -45 27 31 24 45 74 45 163 0 89 -14 139 -45
163 -58 46 4 56 66 11z m289 17 c0 -7 -11 -21 -25 -30 -42 -27 -58 -72 -58
-161 -1 -91 19 -145 58 -163 23 -11 32 -31 19 -44 -9 -10 -75 12 -106 35 -63
47 -90 174 -55 257 16 35 65 88 102 108 28 16 65 15 65 -2z m108 -9 c8 -6 21
-27 29 -45 12 -30 12 -37 -2 -58 -26 -40 -85 -27 -85 20 0 11 7 27 16 37 15
17 15 19 -10 30 -39 18 -35 43 6 35 17 -3 38 -12 46 -19z m-2448 -7 c0 -16 -7
-20 -35 -20 -28 0 -35 4 -35 20 0 16 7 20 35 20 28 0 35 -4 35 -20z m2910 11
c0 -5 -19 -20 -42 -34 -24 -14 -59 -43 -79 -64 l-37 -38 65 -103 c37 -58 76
-108 89 -114 13 -6 24 -17 24 -25 0 -10 -21 -13 -84 -13 -89 0 -104 7 -85 38
10 17 5 32 -34 100 -26 45 -47 87 -47 94 0 7 23 36 51 64 51 51 56 74 18 74
-10 0 -19 7 -19 15 0 12 17 15 90 15 50 0 90 -4 90 -9z m-4603 -276 c5 -15
-33 -72 -60 -90 -14 -9 -39 -20 -56 -25 -49 -14 -41 21 9 42 27 11 45 27 57
52 16 34 42 45 50 21z m1222 6 c10 -6 12 -20 8 -46 -5 -31 -3 -38 13 -42 20
-5 27 -28 13 -36 -16 -9 -71 14 -97 39 -28 28 -34 62 -14 82 14 14 57 16 77 3z
m2955 -23 c-16 -51 -64 -98 -99 -98 -25 0 -17 29 14 44 15 8 34 29 41 46 15
37 56 44 44 8z m-2474 -29 c-12 -40 -38 -69 -62 -69 -24 0 -23 22 2 38 12 7
25 24 30 37 5 14 16 25 24 25 12 0 13 -6 6 -31z m-1173 -410 l58 -70 3 42 c4
56 -4 87 -26 92 -9 3 3 5 27 6 38 1 42 -1 28 -11 -13 -11 -17 -34 -19 -122
l-3 -110 -74 92 c-41 51 -78 92 -83 92 -4 0 -8 -33 -8 -74 0 -66 3 -77 22 -90
22 -16 21 -16 -22 -16 -36 1 -41 3 -27 11 14 8 17 25 17 110 0 94 -1 100 -22
109 -19 7 -14 9 24 9 46 1 48 0 105 -70z m1095 61 c-22 -9 -23 -13 -20 -112
l3 -103 33 -3 c37 -4 60 10 73 46 13 34 20 23 12 -21 l-6 -37 -106 0 c-77 1
-101 3 -88 11 14 8 17 25 17 109 0 84 -3 101 -17 109 -14 8 0 10 52 10 53 0
64 -3 47 -9z m379 -70 c10 0 19 -4 19 -10 0 -5 -9 -10 -20 -10 -19 0 -21 -5
-18 -57 2 -44 6 -57 17 -55 12 3 12 0 1 -12 -15 -19 -41 -21 -58 -4 -7 7 -12
38 -12 70 0 34 -4 58 -11 58 -5 0 5 18 23 40 l33 39 3 -29 c2 -22 9 -30 23
-30z m120 0 c10 0 19 -4 19 -10 0 -5 -9 -10 -20 -10 -19 0 -21 -5 -18 -57 2
-44 6 -57 17 -55 12 3 12 0 1 -12 -15 -19 -41 -21 -58 -4 -7 7 -12 38 -12 70
0 34 -4 58 -11 58 -5 0 5 18 23 40 l33 39 3 -29 c2 -22 9 -30 23 -30z m-1351
-20 c11 -11 20 -29 20 -40 0 -17 -7 -20 -45 -20 -49 0 -53 -5 -29 -38 18 -27
31 -28 57 -5 19 17 20 17 9 -3 -13 -24 -32 -34 -66 -34 -48 0 -78 68 -52 118
24 46 72 56 106 22z m112 12 c-10 -7 -10 -15 2 -43 l14 -34 13 27 c9 22 9 30
-1 43 -11 13 -7 15 28 15 32 0 40 -3 36 -14 -3 -8 1 -26 9 -41 l14 -27 13 32
c11 27 11 33 -1 41 -10 6 -7 9 12 9 l26 0 -31 -80 c-17 -44 -34 -80 -37 -80
-4 0 -16 24 -29 53 l-22 52 -19 -40 c-10 -22 -19 -46 -19 -52 0 -31 -20 -8
-40 45 -12 31 -28 67 -36 80 -14 22 -14 22 33 22 28 0 43 -4 35 -8z m298 -21
l0 -24 -24 22 c-15 14 -30 20 -37 15 -8 -5 1 -19 32 -45 43 -37 44 -38 29 -66
-14 -24 -22 -28 -63 -29 -44 -1 -47 1 -47 24 l0 25 24 -23 c15 -13 32 -20 40
-17 25 10 19 24 -18 47 -67 41 -51 103 26 98 33 -3 38 -6 38 -27z m690 9 c11
-11 20 -29 20 -40 0 -17 -7 -20 -45 -20 -49 0 -53 -5 -29 -38 18 -27 31 -28
57 -5 19 17 20 17 9 -3 -13 -24 -32 -34 -66 -34 -48 0 -78 68 -52 118 24 46
72 56 106 22z m400 0 c11 -11 20 -29 20 -40 0 -17 -7 -20 -45 -20 -49 0 -53
-5 -29 -38 18 -27 31 -28 57 -5 19 17 20 17 9 -3 -13 -24 -32 -34 -66 -34 -48
0 -78 68 -52 118 24 46 72 56 106 22z m113 8 c4 -10 7 -10 18 0 27 25 64 8 51
-25 -6 -18 -23 -16 -38 5 -11 16 -13 15 -23 -11 -15 -38 -14 -90 1 -105 9 -9
1 -12 -37 -11 -28 0 -44 3 -37 6 8 3 12 28 12 73 0 45 -4 70 -12 73 -7 3 4 6
24 6 21 1 38 -4 41 -11z m-983 -73 c0 -11 -12 -15 -50 -15 -38 0 -50 4 -50 15
0 11 12 15 50 15 38 0 50 -4 50 -15z"/>
<path d="M846 1664 c-294 -71 -486 -376 -422 -668 16 -68 19 -76 33 -64 14 12
15 11 3 -8 -11 -18 -9 -29 20 -82 28 -54 37 -62 61 -62 l29 0 -1 158 c-3 242
-1 262 16 262 17 0 19 -27 16 -263 -1 -145 -1 -148 21 -157 l23 -9 -22 0 c-16
-1 -23 -7 -23 -21 0 -22 21 -25 79 -14 44 9 43 41 -1 47 l-33 4 33 1 32 2 0
170 c0 137 3 170 14 170 9 0 12 8 9 24 -4 22 -1 26 31 31 l35 7 4 107 3 106 2
-107 2 -106 41 -7 c36 -6 40 -10 36 -31 -2 -14 1 -25 9 -28 11 -4 14 -41 14
-171 0 -158 1 -165 20 -165 20 0 20 7 20 279 l0 279 69 36 c66 34 74 36 153
34 l83 -3 3 -312 2 -312 33 -4 32 -4 -32 -1 c-25 -2 -33 -7 -33 -21 0 -18 34
-31 81 -31 24 0 26 37 2 43 -17 4 -17 5 -1 6 16 1 18 20 20 208 3 189 5 208
21 211 16 3 17 -12 17 -207 l0 -211 25 0 c18 0 31 10 48 38 57 93 80 179 79
297 -2 369 -346 636 -706 549z"/>
<path d="M1090 979 l0 -431 23 6 c12 3 28 6 35 6 9 0 12 92 12 425 l0 425 -35
0 -35 0 0 -431z"/>
<path d="M1200 994 l0 -416 23 14 22 15 1 402 0 401 -23 0 -23 0 0 -416z"/>
<path d="M1015 1372 c-44 -24 -50 -31 -52 -62 -1 -19 4 -38 10 -42 9 -6 8 -8
-1 -8 -16 0 -13 -91 3 -102 6 -5 5 -8 -3 -8 -16 0 -13 -111 3 -122 6 -5 5 -8
-2 -8 -7 0 -13 -9 -13 -21 0 -13 4 -18 12 -13 7 5 8 3 2 -7 -14 -23 -15 -52
-2 -61 10 -6 10 -8 1 -8 -7 0 -13 -9 -13 -21 0 -13 4 -18 12 -13 7 5 8 3 2 -7
-14 -23 -15 -52 -2 -61 10 -6 10 -8 1 -8 -7 0 -13 -9 -13 -21 0 -13 4 -18 13
-13 9 6 9 4 -1 -8 -14 -18 -13 -49 3 -60 6 -5 5 -8 -2 -8 -7 0 -13 -9 -13 -21
0 -13 4 -18 13 -13 9 6 9 4 1 -7 -6 -8 -12 -35 -13 -61 l-1 -48 37 0 c21 0 48
3 61 6 l22 6 0 424 c0 233 -3 424 -7 424 -5 0 -30 -13 -58 -28z"/>
<path d="M583 1110 c0 -47 2 -66 4 -42 2 23 2 61 0 85 -2 23 -4 4 -4 -43z"/>
<path d="M1370 1110 c0 -47 4 -80 10 -80 6 0 10 33 10 80 0 47 -4 80 -10 80
-6 0 -10 -33 -10 -80z"/>
<path d="M740 1160 c0 -5 8 -10 18 -10 14 0 15 -2 2 -10 -11 -7 3 -9 45 -9 52
1 55 3 25 9 l-35 7 43 2 c72 2 47 21 -28 21 -40 0 -70 -4 -70 -10z"/>
<path d="M720 1038 c0 -57 3 -78 10 -68 6 10 10 11 10 3 0 -7 6 -13 14 -13 8
0 17 6 19 13 4 9 8 8 16 -3 10 -13 11 -13 11 0 0 12 2 13 9 1 7 -11 9 -11 14
0 4 10 6 10 6 2 1 -7 8 -13 16 -13 8 0 15 6 15 13 0 9 2 9 8 1 5 -9 11 -8 20
2 10 11 10 14 0 14 -10 0 -10 2 1 9 11 7 11 9 0 14 -10 4 -10 6 -1 6 6 1 12 7
12 15 0 8 -6 17 -12 19 -10 4 -9 8 2 16 13 10 13 11 0 11 -13 0 -13 1 0 10 13
9 13 10 0 10 -13 0 -13 1 0 10 10 7 -14 10 -77 10 l-93 0 0 -82z m70 22 c0 -5
-4 -10 -10 -10 -5 0 -10 5 -10 10 0 6 5 10 10 10 6 0 10 -4 10 -10z"/>
<path d="M584 860 c0 -91 2 -128 3 -82 2 45 2 119 0 165 -1 45 -3 8 -3 -83z"/>
<path d="M1371 860 c0 -88 5 -160 10 -160 5 0 9 71 9 160 0 101 -4 160 -10
160 -7 0 -10 -58 -9 -160z"/>
<path d="M720 875 l0 -75 93 0 c67 0 88 3 77 11 -11 8 -12 12 -2 16 6 2 12 11
12 19 0 8 -6 14 -12 14 -9 0 -8 4 2 10 13 9 13 10 0 10 -13 0 -13 1 0 10 13 9
13 10 0 10 -12 0 -13 2 -1 9 11 7 11 9 0 14 -10 4 -10 6 -1 6 6 1 12 6 12 11
0 6 -37 10 -90 10 l-90 0 0 -75z m70 -55 c0 -5 -4 -10 -10 -10 -5 0 -10 5 -10
10 0 6 5 10 10 10 6 0 10 -4 10 -10z"/>
<path d="M720 713 l0 -83 93 0 c63 0 87 3 77 10 -13 9 -13 10 0 10 13 0 13 1
0 10 -13 9 -13 10 0 10 13 0 13 1 0 11 -11 8 -12 12 -2 16 6 2 12 11 12 19 0
8 -6 14 -12 14 -10 0 -9 3 1 9 11 7 11 9 0 14 -11 4 -11 6 -1 6 10 1 10 4 0
15 -9 10 -15 11 -20 2 -6 -8 -8 -8 -8 2 0 6 -7 12 -15 12 -8 0 -15 -6 -15 -12
0 -9 -4 -8 -10 2 -9 13 -10 13 -10 0 0 -12 -2 -13 -9 -1 -7 11 -10 11 -15 0
-5 -11 -7 -11 -12 -1 -3 6 -12 12 -20 12 -8 0 -14 -6 -14 -12 0 -9 -4 -8 -10
2 -7 10 -10 -11 -10 -67z m70 -23 c0 -5 -4 -10 -10 -10 -5 0 -10 5 -10 10 0 6
5 10 10 10 6 0 10 -4 10 -10z"/>
<path d="M910 770 c0 -5 9 -10 20 -10 11 0 20 5 20 10 0 6 -9 10 -20 10 -11 0
-20 -4 -20 -10z"/>
<path d="M530 762 c0 -10 22 -32 32 -32 4 0 8 9 8 20 0 13 -7 20 -20 20 -11 0
-20 -4 -20 -8z"/>
<path d="M1400 750 c0 -11 3 -20 8 -20 4 0 13 9 20 20 11 18 10 20 -8 20 -13
0 -20 -7 -20 -20z"/>
<path d="M910 645 c0 -98 1 -105 20 -105 19 0 20 7 20 105 0 98 -1 105 -20
105 -19 0 -20 -7 -20 -105z"/>
<path d="M640 721 c-50 -9 -50 -33 2 -68 72 -49 68 -50 68 16 0 67 2 65 -70
52z"/>
<path d="M1260 670 l0 -62 28 17 c67 43 97 95 53 95 -10 0 -33 3 -50 6 l-31 7
0 -63z"/>
<path d="M720 608 c0 -6 3 -9 6 -5 4 3 13 0 20 -8 8 -8 21 -12 29 -9 8 4 15 1
15 -5 0 -6 8 -11 18 -11 10 0 24 -6 30 -12 10 -10 15 -10 21 1 5 7 10 9 12 3
2 -6 9 -4 17 4 10 11 10 14 0 14 -9 0 -9 3 2 10 13 9 13 10 0 10 -13 0 -13 1
0 10 10 7 -14 10 -77 10 -64 0 -93 -4 -93 -12z"/>
<path d="M3682 388 c-22 -22 -14 -48 13 -48 25 0 31 13 19 44 -7 19 -16 20
-32 4z"/>
<path d="M4782 388 c-22 -22 -14 -48 13 -48 25 0 31 13 19 44 -7 19 -16 20
-32 4z"/>
<path d="M5182 388 c-22 -22 -14 -48 13 -48 25 0 31 13 19 44 -7 19 -16 20
-32 4z"/>
</g>
</svg>
